<?xml version="1.0" encoding="UTF-8"?>
<svg width="350" height="400" viewBox="0 0 350 400" xmlns="http://www.w3.org/2000/svg">
  <style>
    path { fill: #3b82f6; }
  </style>
  <path d="M0 125C0 111.193 11.1929 100 25 100H175V200H25C11.1929 200 0 188.807 0 175V125Z"/>
  <path d="M0 325C0 311.193 11.1929 300 25 300H175V375C175 388.807 163.807 400 150 400H25C11.1929 400 0 388.807 0 375V325Z"/>
  <path d="M175 200H325C338.807 200 350 211.193 350 225V275C350 288.807 338.807 300 325 300H175V200Z"/>
  <path d="M175 25C175 11.1929 186.193 0 200 0H325C338.807 0 350 11.1929 350 25V75C350 88.8071 338.807 100 325 100H175V25Z"/>
</svg> 